PathFileType	4	(X/Y/Z)	C:\Users\Basilio\Documents\Thesis Gigler\squatting_fais\c3dfiles\019\SLS_back_pre5\markers_experimental.trc
DataRate	CameraRate	NumFrames	NumMarkers	Units	OrigDataRate	OrigDataStartFrame	OrigNumFrames
200.000000	200.000000	4	59	mm	200.000000	1295	2073
Frame#	Time	FHD			LBHD			RBHD			C7			T10			CLAV			LSHO			LUUPA			LMUPA			LDUPA			LLEP			LMEP			LRAD			LUL			LRFIN			RSHO			RUPA1			RMUPA			RDUPA			RLEP			RMEP			RRAD			RUL			RUFIN			LASI			RASI			USACR			LSACR			RSACR			LTHI1			LTHI2			LTHI3			LTHI4			LLFC			LTIB1			LTIB2			LTIB3			LTIB4			LLMAL			LMMAL			LHEE			LMT1			LMT2			LMT5			RTHI			RTHI2			RTHI3			RTHI4			RLFC			RTIB1			RTIB2			RTIB3			RTIB4			RLMAL			RMMAL			RHEE			RMT1			RMT2			RMT5			
		X1	Y1	Z1	X2	Y2	Z2	X3	Y3	Z3	X4	Y4	Z4	X5	Y5	Z5	X6	Y6	Z6	X7	Y7	Z7	X8	Y8	Z8	X9	Y9	Z9	X10	Y10	Z10	X11	Y11	Z11	X12	Y12	Z12	X13	Y13	Z13	X14	Y14	Z14	X15	Y15	Z15	X16	Y16	Z16	X17	Y17	Z17	X18	Y18	Z18	X19	Y19	Z19	X20	Y20	Z20	X21	Y21	Z21	X22	Y22	Z22	X23	Y23	Z23	X24	Y24	Z24	X25	Y25	Z25	X26	Y26	Z26	X27	Y27	Z27	X28	Y28	Z28	X29	Y29	Z29	X30	Y30	Z30	X31	Y31	Z31	X32	Y32	Z32	X33	Y33	Z33	X34	Y34	Z34	X35	Y35	Z35	X36	Y36	Z36	X37	Y37	Z37	X38	Y38	Z38	X39	Y39	Z39	X40	Y40	Z40	X41	Y41	Z41	X42	Y42	Z42	X43	Y43	Z43	X44	Y44	Z44	X45	Y45	Z45	X46	Y46	Z46	X47	Y47	Z47	X48	Y48	Z48	X49	Y49	Z49	X50	Y50	Z50	X51	Y51	Z51	X52	Y52	Z52	X53	Y53	Z53	X54	Y54	Z54	X55	Y55	Z55	X56	Y56	Z56	X57	Y57	Z57	X58	Y58	Z58	X59	Y59	Z59	

1296	6.475000000000001	-87.58571624755861	1437.98681640625	-645.5441284179689	-215.8903961181641	1407.828369140625	-788.4335937500002	-220.6067962646485	1403.596557617188	-648.8118286132814	-269.9759521484376	1265.388671875	-703.3975219726564	-421.4148559570314	1028.429077148438	-707.6539306640626	-154.4462585449219	1178.843383789063	-710.9894409179689	-192.2608337402344	1255.865844726563	-837.9278564453127	-75.40631103515626	1220.664428710938	-895.300231933594	-50.52489471435548	1213.448486328125	-854.103454589844	-9.868304252624513	1213.457641601563	-899.1240844726565	59.84760665893556	1175.380126953125	-929.8496704101565	54.6264114379883	1119.004028320313	-913.118347167969	298.3682861328126	1201.542236328125	-844.7382812500002	307.3619079589844	1155.505981445313	-890.3057861328127	372.6746826171876	1219.8994140625	-845.247741699219	-172.1942138671875	1251.472290039063	-592.3101806640626	-65.25511932373048	1180.684692382813	-490.1066894531251	-38.81548309326173	1208.18994140625	-522.3977050781251	3.293289422988892	1168.226440429688	-493.6624145507814	80.36270141601564	1162.922607421875	-507.5136108398439	69.11206054687501	1107.931518554688	-523.3787841796876	314.0108032226563	1212.401977539063	-591.5676879882814	332.3109741210938	1166.292846679688	-551.9171142578126	396.4965209960939	1229.357177734375	-589.5549926757814	-397.6676025390626	784.968933105469	-835.5747070312502	-373.5622863769532	783.277038574219	-636.5642700195314	-492.4076232910157	910.5756835937502	-717.4813232421876	-516.0950317382814	886.0523071289065	-743.7769165039064	-508.8079223632814	883.216247558594	-686.1857299804689	-473.5681152343751	555.1013793945314	-927.3894042968752	-426.9888305664064	482.6539306640626	-935.777038574219	-383.2789001464844	486.5060424804689	-917.272888183594	-448.8876953125001	425.1921691894532	-931.4725341796877	-455.7996215820314	344.1977539062501	-918.413757324219	-555.1209106445314	247.4338684082032	-885.889099121094	-610.0770874023439	298.5257568359376	-941.3731079101565	-607.1815185546876	263.8945922851563	-917.4111328125002	-684.6814575195314	251.3221893310547	-880.0206298828127	-825.1682739257815	303.5155944824219	-905.8756103515627	-809.160583496094	289.8273010253907	-822.7482910156252	-869.7006835937502	360.6183166503907	-856.5296020507815	-861.861999511719	144.6816864013672	-823.6021728515627	-873.0637207031252	144.744369506836	-865.5805664062502	-906.0074462890627	182.0657501220703	-914.7005004882815	-377.4540405273438	645.0684204101564	-556.2017822265626	-313.5291442871094	637.3640136718751	-571.8345336914064	-299.7194519042969	664.3846435546876	-591.1067504882814	-272.5431518554688	565.1301269531251	-577.4868164062501	-197.5223541259766	441.7176513671876	-632.0941162109376	-217.5977325439454	280.4351501464844	-717.0015258789064	-294.9701843261719	220.9832305908204	-662.2139282226564	-270.1198120117188	212.4074401855469	-702.1119384765626	-300.2754821777344	187.8089294433594	-746.6823730468751	-388.639373779297	125.7189865112305	-700.1756591796876	-371.7592163085938	140.4538269042969	-777.2761230468752	-465.9486694335939	112.2640151977539	-758.8001708984376	-266.6580505371094	62.27577209472658	-790.291931152344	-261.2945861816407	60.70039367675783	-744.5361328125001	-301.5019226074219	47.13438034057618	-690.7736816406251	
1297	6.48	-87.09291076660158	1436.443115234375	-645.5202636718751	-215.5914154052735	1406.248657226563	-788.323913574219	-220.109115600586	1401.833862304688	-648.5831909179689	-269.3650207519532	1263.808227539063	-703.3143920898439	-421.4314880371095	1027.073608398438	-707.5564575195314	-153.8424835205078	1177.260986328125	-711.1697387695314	-191.6481170654297	1254.102661132813	-837.7380371093752	-75.01107788085939	1219.018920898438	-895.1842041015627	-50.0695037841797	1211.728393554688	-853.944763183594	-9.405958175659181	1211.858520507813	-898.9915771484377	60.2829933166504	1173.799194335938	-929.7693481445315	55.00001907348634	1117.483520507813	-912.9680786132815	298.7328186035157	1200.091064453125	-844.8218994140627	307.6112365722657	1154.050659179688	-890.3189086914065	372.7177734375001	1218.54248046875	-845.3633422851565	-172.1900634765625	1250.18603515625	-592.3530273437501	-64.92938232421876	1179.318969726563	-490.0838928222657	-37.80078506469727	1206.8515625	-522.1969604492189	3.718916654586793	1166.89208984375	-493.6119079589845	80.7916717529297	1161.489379882813	-507.5830993652345	69.5603713989258	1106.509521484375	-523.4740600585939	314.5849304199219	1211.279541015625	-591.7232055664064	332.6708984375001	1165.120361328125	-552.2057495117189	396.6772460937501	1228.26708984375	-589.8966064453126	-397.6932983398439	783.436462402344	-835.5598144531252	-373.6494445800782	781.885192871094	-636.5781250000001	-492.356170654297	909.1579589843752	-717.5911254882814	-516.3148803710939	884.708923339844	-743.8669433593751	-508.8801879882814	881.5383300781252	-686.1593627929689	-473.8121948242189	553.6379394531251	-927.4674072265627	-427.5122985839845	481.3296203613282	-935.982604980469	-383.6206054687501	484.9378662109376	-917.5144042968752	-449.3110961914064	423.6963195800782	-931.6876220703127	-456.4331970214845	342.8517456054688	-918.769470214844	-555.2062377929689	246.2551879882813	-884.919616699219	-610.9295043945314	297.6338195800782	-941.736511230469	-607.9268798828126	262.8262634277344	-917.735290527344	-685.4898681640626	250.5839233398438	-880.4228515625002	-826.009948730469	303.0058288574219	-906.3365478515627	-809.8953247070315	289.2370910644532	-823.0202636718752	-870.147888183594	360.1477355957032	-856.7126464843752	-862.9065551757815	144.2601928710938	-823.923767089844	-874.1917114257815	144.3184661865235	-865.8342285156252	-906.8646240234377	181.5431518554688	-914.9729614257815	-377.4529418945313	643.9484863281251	-556.0205078125001	-313.5969238281251	636.7174072265626	-571.8967285156251	-299.7913208007813	663.7546386718751	-591.0192871093751	-272.3629760742188	564.3616943359376	-577.4342651367189	-197.1029357910157	441.3511047363282	-632.0963745117189	-217.390853881836	280.1417846679688	-717.1544799804689	-294.7778625488282	220.8889770507813	-662.1436767578126	-269.8121643066407	212.2212982177735	-702.1748657226564	-300.0113525390626	187.6212310791016	-746.8706054687501	-388.5062561035157	125.7723388671875	-700.1750488281251	-371.7449645996094	140.4611511230469	-777.3194580078127	-466.0205688476564	112.3352737426758	-758.7847290039064	-266.6326904296876	62.2728729248047	-790.2156982421877	-261.2886352539063	60.58900070190431	-744.5291748046876	-301.5144348144532	47.14709091186524	-690.7741088867189	
1298	6.485	-86.5525588989258	1434.609130859375	-645.3764648437501	-215.3123931884766	1404.494140625	-788.2416992187502	-219.6511535644532	1400.331787109375	-648.3855590820314	-268.8959960937501	1262.111206054688	-703.1458129882814	-421.1922912597657	1025.678588867188	-707.5484619140626	-153.5676574707032	1175.512939453125	-711.0208740234376	-191.2276916503907	1252.546142578125	-837.4316406250002	-74.63698577880861	1217.436645507813	-894.8927001953127	-49.68908691406251	1210.171264648438	-853.7874145507815	-9.033287048339846	1210.25244140625	-898.8581542968752	60.65118408203126	1172.2138671875	-929.5737304687502	55.37831878662111	1115.875	-912.8138427734377	299.1477050781251	1198.513305664063	-844.8897094726565	308.2595214843751	1152.296264648438	-890.2941894531252	373.1975402832032	1217.086669921875	-845.5318603515627	-171.244125366211	1248.250122070313	-592.0776977539064	-64.50750732421876	1177.924438476563	-490.0494689941407	-37.43685531616212	1205.528442382813	-521.9647216796876	4.132169246673585	1165.631103515625	-493.5873107910157	81.23922729492189	1160.219604492188	-507.5119628906251	69.93885040283205	1105.440673828125	-523.4664916992189	314.9103698730469	1210.022094726563	-591.9470214843751	332.9551391601563	1163.905517578125	-552.3977050781251	397.7488098144532	1226.383178710938	-590.1432495117189	-397.9292602539064	782.0210571289065	-835.5760498046877	-373.6877746582032	780.8169555664065	-636.4766235351564	-492.4392395019532	908.005554199219	-717.6108398437501	-515.9537963867189	883.2916259765627	-744.0018310546876	-509.5642395019532	880.4990844726565	-686.2571411132814	-474.357391357422	552.3787231445314	-927.6189575195315	-427.955535888672	480.1899719238282	-936.4606933593752	-384.1323242187501	483.5586242675782	-917.8218383789065	-449.8721923828126	422.2943115234376	-931.9356689453127	-456.9172973632814	341.4881591796876	-919.0944824218752	-556.7108764648439	245.3433532714844	-886.4234008789065	-611.6842651367189	296.7637329101563	-941.9788208007815	-608.7380981445314	261.7896118164063	-918.1070556640627	-685.8428344726564	249.5342102050782	-880.296081542969	-826.5318603515627	302.5246582031251	-906.4741821289065	-810.6037597656252	288.8324584960938	-823.3315429687502	-870.6710205078127	359.8496093750001	-857.0493774414065	-863.8794555664065	143.8659057617188	-824.5585937500002	-875.226501464844	144.0178833007813	-866.0751953125002	-907.8465576171877	181.2749176025391	-915.1644287109377	-377.6033630371094	643.1450195312501	-556.0799560546876	-313.6982421875001	635.9786376953126	-571.8461914062501	-299.9005737304688	663.1170043945314	-590.9558715820314	-272.2643432617188	563.8148193359376	-577.4489135742189	-196.5566864013672	441.0149841308595	-632.0836181640626	-217.0552520751954	279.8327026367188	-717.0928344726564	-294.5028686523438	220.7304840087891	-662.1477661132814	-269.6452026367188	212.0396270751954	-702.1791992187501	-299.9328918457032	187.5568542480469	-747.1377563476564	-388.472381591797	125.7205429077149	-700.1146850585939	-371.6658020019532	140.4687042236328	-777.3623046875002	-465.727752685547	112.2023010253907	-758.7824096679689	-266.6116638183594	62.19751358032228	-790.2024536132815	-261.2983093261719	60.59970092773439	-744.5286254882814	-301.5302124023438	47.12090301513673	-690.7734375000001	
1299	6.49	-86.07896423339845	1432.809814453125	-645.1826782226564	-215.1326446533204	1402.853393554688	-788.221374511719	-219.1929016113282	1398.547485351563	-648.3088378906251	-268.5747375488282	1260.456176757813	-703.0170288085939	-421.1380615234376	1024.316162109375	-707.5073242187501	-153.363754272461	1173.758056640625	-711.1094360351564	-190.6901397705078	1250.83447265625	-837.224304199219	-74.20790863037111	1215.8955078125	-894.8242187500002	-49.22253799438478	1208.653076171875	-853.7113037109377	-8.523030281066896	1208.791870117188	-898.5720825195315	61.02630615234376	1170.688232421875	-929.4046630859377	55.70006942749025	1114.343383789063	-912.7021484375002	299.6085815429688	1197.084228515625	-844.9385375976565	308.7511291503907	1150.773193359375	-890.2618408203127	373.6811523437501	1215.524658203125	-845.7442626953127	-171.5679779052735	1247.419555664063	-592.3226928710939	-64.0759963989258	1176.371215820313	-489.8451232910157	-37.10217666625977	1203.883544921875	-522.1174316406251	4.5622878074646	1164.036865234375	-493.5421142578126	81.53524017333986	1158.483154296875	-507.5406799316407	70.29508209228517	1103.692626953125	-524.4916992187501	315.2926025390626	1208.581298828125	-592.2179565429689	333.5728454589844	1162.531127929688	-552.4857788085939	397.8174743652345	1225.272338867188	-590.4037475585939	-398.1717834472657	780.6757812500002	-835.5286254882815	-374.1773071289063	779.1435546875002	-636.5828247070314	-492.5369873046876	906.705261230469	-717.7026367187501	-516.4863281250001	882.243347167969	-743.9415283203126	-509.3078002929689	879.162048339844	-686.4122314453126	-474.8533935546876	551.0958251953126	-927.742614746094	-428.5301513671876	478.6173400878907	-936.3930664062502	-384.7959289550782	482.2119140625001	-918.0332031250002	-450.4446411132814	420.9970092773439	-932.210632324219	-457.6058349609376	340.2631530761719	-919.3594360351565	-557.1091918945314	244.1313171386719	-885.8564453125002	-612.2879028320314	295.8513183593751	-942.248962402344	-609.0825805664064	260.5404663085938	-918.1949462890627	-686.4787597656251	248.4907379150391	-880.633728027344	-827.028503417969	301.8899841308594	-906.7286376953127	-811.262145996094	288.1948547363282	-823.6346435546877	-871.116882324219	359.4516906738282	-857.2898559570315	-865.1361083984377	143.5944213867188	-824.6108398437502	-876.4243774414065	143.6147766113282	-866.4883422851565	-909.0003051757815	181.197250366211	-915.433532714844	-377.6991577148438	642.2402954101564	-556.0318603515626	-313.6900939941407	635.1397705078126	-571.7254028320314	-300.1107177734376	662.4412231445314	-590.9580078125001	-272.1168212890626	563.2034301757814	-577.4611816406251	-196.1710052490235	440.7351989746095	-632.2350463867189	-216.8079528808594	279.6264648437501	-717.1737060546876	-294.2734069824219	220.5923767089844	-662.1714477539064	-269.4211730957032	211.8700256347657	-702.2330322265626	-299.7693176269532	187.5078582763672	-747.1307983398439	-388.3023376464845	125.6778030395508	-700.1802978515626	-371.6043701171876	140.4798583984375	-777.3228759765627	-465.6587219238282	112.2086410522461	-758.8278198242189	-266.5363769531251	62.24707031250001	-790.1627197265627	-261.3270874023438	60.59939193725587	-744.6381835937501	-301.5255126953126	47.11858749389649	-690.7755126953126	
